<svg xmlns="http://www.w3.org/2000/svg" viewBox="0 0 303.53 201.62">
  <path fill="currentColor" d="M118.54,126c1-.45,1.96-.99,2.99-1.33,30.82-10.19,61.34-21.19,91.25-33.84,17.31-7.32,34.49-14.94,50.32-25.2,10.52-6.82,20.14-14.74,27.04-25.35,2.58-3.96,4.61-8.47,5.91-13.01,1.92-6.69-.64-12.09-6.64-15.79-6.19-3.83-13.13-5.18-20.26-5.59-18.92-1.1-36.68,3.93-54.09,10.57-4.82,1.84-9.56,3.97-14.14,6.34-2.24,1.16-4.05,3.17-6.4,5.08-1.57-.87-1.4-2.74.11-4.21,2.18-2.13,4.54-4.24,7.17-5.74,12.23-6.94,25.34-11.68,39-14.95,11.5-2.75,23.13-3.92,34.84-2.07,4.87.77,9.81,2.11,14.31,4.1,11.61,5.14,15.96,15.16,12.35,27.35-2.8,9.48-8.54,17.16-15.24,24.2-10.09,10.59-22.23,18.36-35.13,24.99-28.44,14.62-58.37,25.42-88.99,34.35-13.73,4-27.67,7.26-41.53,10.82-.83.21-1.75.12-2.62.17-.08-.29-.16-.59-.24-.88Z"/>
  <path fill="currentColor" d="M27.37,81.19c1.07.98,1.62,1.48,2.17,1.98-.02.32-.04.64-.06.97-1.62.1-3.9.89-4.7.12-.98-.94-1.48-3.55-.87-4.77,1.4-2.77,3.19-5.66,5.57-7.58,10.63-8.63,21.17-17.46,32.39-25.28,22.89-15.94,47.73-27.95,74.99-34.56,9.11-2.21,18.32-3.77,27.73-3.51,3.25.09,6.53.44,9.71,1.09,8.47,1.74,11.97,7.64,9.65,15.97-1.87,6.71-5.75,12.31-9.99,17.66-10.43,13.14-22.63,24.6-35.09,35.74-26.61,23.79-53.47,47.3-80.18,70.98-14.81,13.14-29.52,26.39-44.27,39.59-3.79,3.39-7.58,6.78-11.38,10.15-.75.67-1.58,1.26-2.37,1.88-.22-.23-.44-.45-.65-.68.6-.66,1.15-1.36,1.8-1.97,27.35-25.67,54.64-51.41,82.08-76.98,22.06-20.55,44.41-40.81,66.45-61.39,9.03-8.43,17.63-17.35,24.47-27.73,1.97-2.99,3.57-6.35,4.72-9.74,1.59-4.72-.04-8.14-4.91-9.12-5.26-1.06-10.83-1.69-16.15-1.22-21.29,1.87-40.94,9.39-59.97,18.63-21.84,10.6-41.81,24.14-60.48,39.59-3.74,3.09-7.03,6.72-10.63,10.21Z"/>
</svg>
