<svg id="fc-logo" viewBox="0 0 1188.33 864.21" xmlns="http://www.w3.org/2000/svg">
    <path
        d="m1117.13 214.9c-80.25-33.35-160.57-66.56-240.79-100.01-89.2-37.19-178.26-74.7-267.58-111.59-6.8-2.81-16.38-4.63-22.69-2.06-88.61 36.07-176.91 72.9-265.21 109.71-106.23 44.3-212.41 88.76-320.86 134.09 6.77 29.05 13.17 58.07 20.63 86.82 1.13 4.35 6.69 9.58 11.14 10.71 34.83 8.86 69.82 17.08 104.89 24.92 14.09 3.15 28.49 4.86 44.11 7.46v-137.74c90.95-26.57 180.93-53.29 271.23-78.86 16.58-4.69 34.47-6.28 51.79-6.54 53.82-.81 107.67-.3 161.5-.3h17.15c0 103.2-.32 204.04.34 304.88.1 15.04-4.9 18.57-18.92 18.35-44.57-.7-89.34-2.58-133.69.64-34.52 2.51-68.81 10.78-102.72 18.56-78.51 18.01-156.75 37.17-235 56.29-4.45 1.09-11 5.77-11.34 9.28-1.33 13.69-.54 27.59-.54 42.53 76.1-16.1 149.81-32.63 223.93-47.03 48.69-9.45 95.45-28.17 147.5-21.92 36.93 4.43 75.06-.43 112.6-2.12 13.37-.6 18.31 2.72 18.15 17.11-.77 69.51-.47 139.03-.53 208.54-.03 34.76 0 69.53 0 104.29 1.59 1.1 3.19 2.2 4.78 3.3 10.7-6.74 21.35-13.55 32.11-20.19 33.51-20.68 66.92-41.54 100.63-61.89 51.37-31.02 102.65-62.23 154.58-92.29 37.2-21.54 37.82-20.76 37.32-64.8-.86-77.2-1.56-154.42-3.33-231.6-.32-13.92 4.77-19.1 17.21-21.75 43.25-9.23 86.25-19.71 129.65-28.14 9.73-1.89 12.88-4.83 14.61-13.83 2.9-15.12 7.7-29.88 11.05-44.93 2.98-13.39 5.08-26.97 7.48-40.03-25.05-10.51-48.1-20.25-71.2-29.85zm-685.74 46.84c-.08-18.37-9.66-32.23-22.63-34.82-16.95-3.39-31.4 4.35-40.24 21.61-2.71 5.28-5.3 10.62-8.2 16.44-21.79-27.57-49.08-20.97-65.8 18.79-22.87-23.55-45.12-20.85-56.27 7.14-4.86 12.2-6.88 26.18-7.19 39.43-.92 38.66-.33 77.36-.33 116.05v43.01c68.47-15.85 134.66-31.18 200.76-46.48 0-62 .16-121.58-.1-181.16z"
        fill="#fff" />
</svg>