<svg id="fullsaillogo" xmlns="http://www.w3.org/2000/svg" viewBox="0 0 327.11 326.66">
    <path
        d="M180.5.7c43.96,3.89,79.88,24.39,108.49,57.79,3.34,3.9,6.12,8.29,9.42,12.23,2.22,2.65,1.33,3.74-1.36,5.02-14.69,6.97-29.3,14.11-43.99,21.09-23.66,11.25-47.38,22.37-71.02,33.68-2.41,1.15-4.1,1.04-6.34-.35-8.32-5.16-16.8-10.05-26.13-13.77,2.72-4.48,5.39-8.84,8-13.23.57-.95,1.55-2.23.65-3.15-1.24-1.26-2.4.1-3.39.86-4.51,3.45-8.39,7.57-12.11,11.82-2.07,2.37-3.8,3.81-7.68,3.76-3.18-.04,2.75,5.69-1.69,7.61-.67.29-1.02,1.28-1.56,1.91-3.03,3.5-4.44,9.87-8.34,10.57-3.78.68-8.41-3.11-12.61-5.06-5.9-2.73-12-4.79-18.36-6.11-2.48-.52-4.99-.96-7.22.62-1.72,1.22-3.18.04-4.75-.18-2.63-.37-5.24-1-7.88-1.11-7.25-.3-9.05,2.64-5.55,9.09,3.64,6.69,9.11,11.86,14.92,16.59,5.53,4.5,11.39,8.6,17.56,13.21-4.73,2.98-5.82,10.04-13.24,10.49,1.63,2.7.32,4.86-1.32,7.2-2.8,3.98-6.06,7.8-7.03,13.48,4.45-2.01,6.81-5.46,9.59-8.37,1.29-1.35,2.19-1.98,3.33-.03.08.14.19.28.3.4,2.95,3.14,7.63,5.94,8.33,9.52.64,3.25-3.11,7.33-4.81,11.09-1.09,2.41-2.11,4.87-2.95,7.38-1.95,5.79.99,9.8,7.17,10.03,3.28.12,6.17-1.27,9.07-2.42,16.8-6.64,33.59-13.3,50.27-20.23,3.78-1.57,7.05-1.64,10.94-.47,23.69,7.1,47.42,14.07,71.21,20.81,4.06,1.15,5.41,2.59,4.17,6.79-.66,2.24-3.01,5.31.1,7.21,3.39,2.07,7.32,3.43,11.33,1.35,3.24-1.68,6.45-3.45,9.49-5.45,3.14-2.07,9.05-1.63,9.71-3.25,1.59-3.92,4.68-5.27,7.42-7.34,3.31-2.5,6.89-4.64,10.24-7.09,3.74-2.74,3.79-4.51.22-7.36-3.15-2.52-6.76-3.5-10.75-2.32-3.96,1.17-7.92,2.39-12.36,3.74-.19-6.83-3.77-11.17-9.59-14.07-3.11-1.54-5.68-1.48-8.08,1.09-.34.36-.7.71-1.06,1.06q-9.02,8.79-19.7,1.71c-10.11-6.66-20.26-13.26-30.89-20.21,37.07-28.23,73.85-56.24,110.85-84.41,7.49,15.03,12.04,30.91,14.12,47.38,5.13,40.57-3,78.4-25.87,112.41-26.45,39.34-63.27,63.69-110.29,70.77-58.34,8.78-108.2-8.91-147.91-52.47C10.19,237.59-2.87,196.13.52,149.88,5.98,75.53,63.69,13.49,137.31,1.99c6.9-1.08,23.27-3.05,43.19-1.28Z"
        fill="#fff" />
    <path
        d="M128.76,140.54c3.36-3.7,6.01-6.63,8.66-9.55,2.51,2.78,5.02,5.56,7.53,8.33,1.76,1.93,3.52,3.86,5.36,5.87-9.46,6.7-14.12-3.74-21.56-4.65Z"
        fill="#fff" />
    <path
        d="M98.16,173.28q4.76-7.98,12.81-3.16c4.99,2.99,4.97,3.14,1.21,7.27-1.07,1.18-1.81,1.5-3.33.73-3.48-1.75-7.1-3.24-10.69-4.84Z"
        fill="#fff" />
</svg>